<svg xmlns="http://www.w3.org/2000/svg" viewBox="0 0 1200 300">
  <defs>
    <linearGradient id="bg" x1="0%" y1="0%" x2="100%" y2="100%">
      <stop offset="0%" style="stop-color:#0f172a"/>
      <stop offset="100%" style="stop-color:#1e1b4b"/>
    </linearGradient>
    <linearGradient id="accent" x1="0%" y1="0%" x2="100%" y2="0%">
      <stop offset="0%" style="stop-color:#4f46e5"/>
      <stop offset="100%" style="stop-color:#7c3aed"/>
    </linearGradient>
    <linearGradient id="card" x1="0%" y1="0%" x2="0%" y2="100%">
      <stop offset="0%" style="stop-color:#f8fafc"/>
      <stop offset="100%" style="stop-color:#e2e8f0"/>
    </linearGradient>
    <linearGradient id="screen" x1="0%" y1="0%" x2="0%" y2="100%">
      <stop offset="0%" style="stop-color:#1e293b"/>
      <stop offset="100%" style="stop-color:#0f172a"/>
    </linearGradient>
    <pattern id="grid" width="40" height="40" patternUnits="userSpaceOnUse">
      <path d="M 40 0 L 0 0 0 40" fill="none" stroke="#1e293b" stroke-width="1"/>
    </pattern>
  </defs>

  <!-- Background -->
  <rect width="1200" height="300" fill="url(#bg)" rx="16"/>

  <!-- Grid overlay -->
  <rect width="1200" height="300" fill="url(#grid)" opacity="0.4"/>

  <!-- Ambient glows -->
  <circle cx="100" cy="50" r="180" fill="#4f46e5" opacity="0.08"/>
  <circle cx="1100" cy="250" r="220" fill="#7c3aed" opacity="0.08"/>

  <!-- SD Card icon (left) -->
  <g transform="translate(140, 150)">
    <!-- Card body -->
    <rect x="-50" y="-80" width="100" height="160" rx="14" ry="14" fill="url(#card)"/>
    <!-- Notch -->
    <rect x="-36" y="-80" width="28" height="22" rx="4" ry="4" fill="#cbd5e1"/>
    <!-- Pins -->
    <rect x="-36" y="58" width="72" height="10" rx="4" ry="4" fill="#94a3b8"/>
    <line x1="-26" y1="58" x2="-26" y2="68" stroke="#64748b" stroke-width="1.5"/>
    <line x1="-10" y1="58" x2="-10" y2="68" stroke="#64748b" stroke-width="1.5"/>
    <line x1="6" y1="58" x2="6" y2="68" stroke="#64748b" stroke-width="1.5"/>
    <line x1="22" y1="58" x2="22" y2="68" stroke="#64748b" stroke-width="1.5"/>
    <!-- Screen -->
    <rect x="-35" y="-50" width="70" height="50" rx="6" ry="6" fill="url(#screen)"/>
    <text x="0" y="-20" font-family="system-ui, -apple-system" font-size="14" font-weight="bold" fill="#22d3ee" text-anchor="middle">MinUI</text>
    <rect x="-22" y="-12" width="44" height="2" rx="1" fill="#22d3ee" opacity="0.5"/>
    <rect x="-18" y="-6" width="36" height="2" rx="1" fill="#22d3ee" opacity="0.3"/>
    <!-- Install arrow -->
    <circle cx="0" cy="85" r="18" fill="#10b981"/>
    <path d="M-6,78 L-6,88 L0,95 L6,88 L6,78" stroke="white" stroke-width="3" stroke-linecap="round" stroke-linejoin="round" fill="none"/>
  </g>

  <!-- Title -->
  <text x="320" y="120" font-family="system-ui, -apple-system, sans-serif" font-size="48" font-weight="bold" fill="white">MinUI Easy Installer</text>

  <!-- Accent underline -->
  <rect x="320" y="135" width="180" height="4" rx="2" fill="url(#accent)"/>

  <!-- Subtitle -->
  <text x="320" y="175" font-family="system-ui, -apple-system, sans-serif" font-size="24" fill="#94a3b8">&amp; Package Store</text>

  <!-- Tagline -->
  <text x="320" y="220" font-family="system-ui, -apple-system, sans-serif" font-size="17" fill="#64748b">The easiest way to install and manage MinUI on retro handhelds</text>

  <!-- Tech badges -->
  <g transform="translate(320, 245)">
    <rect x="0" y="0" width="82" height="28" rx="14" fill="#1e293b" stroke="#334155" stroke-width="1"/>
    <text x="41" y="19" font-family="system-ui, -apple-system" font-size="12" fill="#94a3b8" text-anchor="middle">Tauri v2</text>

    <rect x="92" y="0" width="82" height="28" rx="14" fill="#1e293b" stroke="#334155" stroke-width="1"/>
    <text x="133" y="19" font-family="system-ui, -apple-system" font-size="12" fill="#94a3b8" text-anchor="middle">React</text>

    <rect x="184" y="0" width="82" height="28" rx="14" fill="#1e293b" stroke="#334155" stroke-width="1"/>
    <text x="225" y="19" font-family="system-ui, -apple-system" font-size="12" fill="#94a3b8" text-anchor="middle">Rust</text>
  </g>
</svg>
